# xmcd
#
# Track frame offsets:
#	150
#	21420
#	35054
#	59206
#	78031
#	97478
#	116730
#	135930
#	155430
#	171484
#	195001
#	214098
#
# Disc length: 3154 seconds
#
# Revision: 0
# Processed by: cddbd v1.5.1PL0 Copyright (c) Steve Scherf et al.
# Submitted via: EasyCDDAExtractor 7.5.0.1
#
DISCID=a90c500c
DTITLE=Тамара Гвардцители - Лучшие песни разных лет
DYEAR=1900
DGENRE=
TTITLE0=Виват, король!
TTITLE1=Не ревнуй!
TTITLE2=Чио-чио Сан
TTITLE3=Иерусалим
TTITLE4=Мамины глаза
TTITLE5=Сильней любить
TTITLE6=Нстальгия
TTITLE7=Посвящение женщине
TTITLE8=Воробышек
TTITLE9=Моя любимая Пиаф
TTITLE10=Спасибо, музыка тебе
TTITLE11=Грузия
EXTD=
EXTT0=
EXTT1=
EXTT2=
EXTT3=
EXTT4=
EXTT5=
EXTT6=
EXTT7=
EXTT8=
EXTT9=
EXTT10=
EXTT11=
PLAYORDER=
